<?xml version="1.0" encoding="utf-8"?>
<!-- Generator: Adobe Illustrator 25.3.1, SVG Export Plug-In . SVG Version: 6.00 Build 0)  -->
<svg version="1.1" id="Layer_1" xmlns="http://www.w3.org/2000/svg" xmlns:xlink="http://www.w3.org/1999/xlink" x="0px" y="0px"
	 width="284.2px" height="112.9px" viewBox="0 0 284.2 112.9" style="enable-background:new 0 0 284.2 112.9;" xml:space="preserve"
	>
<style type="text/css">
	.st0{fill:#FFFFFF;}
	.st1{fill:#6BBCAE;}
	.st2{fill:#FFFFFF;stroke:#203468;stroke-width:0.2597;stroke-miterlimit:10;}
</style>
<g>
	<path class="st0" d="M122,56.1c-1.9,3.5-4.5,8.8-7.7,15.8c-2.7,5.8-5.3,10.7-7.7,14.4c-2.5,3.8-6,7.2-10.4,10
		c-4.5,2.9-10,4.3-16.6,4.3l-0.1,0c-7.2,0-13.6-1.7-19.1-5.1c-0.7-0.4-3-1.9-3.7-2.4c-1.1-0.5-2.2-1.1-3.3-1.8
		c-1-0.6-3.9-2.5-5.6-3.8L47,87.3c-1.5,1.4-3.2,2.6-5,3.8c-4.5,2.9-10,4.3-16.6,4.3l-0.1,0c-2.4,0-4.7-0.2-6.9-0.6l0,0c0,0,0,0,0,0
		v18h112.9V46.3c-0.7,0.4-1.4,0.9-2.1,1.4C126.3,49.9,123.9,52.7,122,56.1z"/>
	<path class="st0" d="M28.6,61.4c1.7-2.9,3.7-6.9,5.9-11.9l1.4-3.3c3.2-7.2,6.3-13.1,9.3-17.6c3.1-4.5,6.8-8.2,11.2-10.8
		c5.5-3.3,10.7-4.9,16-4.9c10.3,0,18.8,2.7,27.5,8.9l0.9,0.7c1.6,1,3.1,2.9,4.6,4.3l0.1,0.1c1.6-1.4,3.2-2.6,5-3.7
		c5.5-3.3,10.7-4.9,16-4.9c1.6,0,3.1,0.1,4.6,0.3V0H18.3v70.2c1.5-0.4,2.8-1.1,4-1.9C24.8,66.6,27,64.2,28.6,61.4z"/>
	<path class="st0" d="M83.4,39c-2.8,0-5.5,1.1-8.5,3.4c-2.8,2.2-5.2,5-7.1,8.4c-1.9,3.5-4.5,8.8-7.7,15.8c-0.8,1.7-1.5,3.2-2.3,4.7
		l0.6,0.3c2.8,1.7,7,3.5,8.4,3.9c0.8,0.2,1.7,0.3,2.7,0.3c1,0,1.9-0.1,2.7-0.3c1.6-0.4,3-1.1,4.2-1.9c2.6-1.8,4.7-4.1,6.3-7
		c1.7-2.9,3.7-6.9,5.9-11.9l1.4-3.3c1-2.4,2.1-4.6,3.1-6.7C89.3,38.7,83.9,39,83.4,39z"/>
	<path class="st1" d="M131.2,46.3c0.2-0.1,0.4-0.2,0.5-0.3C131.5,46,131.3,46.1,131.2,46.3L131.2,46.3z"/>
	<path class="st1" d="M129.9,40.1c-0.6,0-1.1,0.1-1.7,0.2C128.5,40.3,129.1,40.2,129.9,40.1z"/>
	<path class="st0" d="M105.3,34.3C105.3,34.3,105.2,34.3,105.3,34.3C105.2,34.3,105.2,34.3,105.3,34.3z"/>
	<path class="st1" d="M127.9,40.4L127.9,40.4c0.1,0,0.2,0,0.2,0C128,40.4,127.9,40.4,127.9,40.4z"/>
	<path class="st1" d="M129.9,40.1c0.2,0,0.4,0,0.6,0c0.2,0,0.4,0,0.7,0V40C130.7,40.1,130.3,40.1,129.9,40.1z"/>
	<path class="st1" d="M18.1,94.8c0.1,0,0.1,0,0.2,0v0C18.2,94.8,18.2,94.8,18.1,94.8z"/>
	<path class="st1" d="M18.3,94.8C18.3,94.8,18.3,94.8,18.3,94.8L18.3,94.8C18.3,94.8,18.3,94.8,18.3,94.8L18.3,94.8z"/>
	<path class="st1" d="M18.4,91.2c0,0-0.1,0-0.1,0l0,0v3.6c0,0,0,0,0,0L18.4,91.2C18.5,91.2,18.5,91.2,18.4,91.2z"/>
	<polyline class="st1" points="18.2,91.2 18.3,91.2 18.3,91.2 	"/>
	<g>
		<path class="st0" d="M105.2,34.3C105.2,34.3,105.3,34.3,105.2,34.3C105.2,34.3,105.2,34.3,105.2,34.3z"/>
		<path class="st1" d="M144.6,44.9c-0.3-0.4-0.7-0.7-1-1c-3.6-3.1-6.7-3.9-12.4-3.9v0.1c-0.2,0-0.4,0-0.7,0c-0.2,0-0.4,0-0.6,0
			c-0.8,0.1-1.4,0.2-1.7,0.2c-0.1,0-0.2,0-0.2,0.1c-1.9,0.5-3.9,1.5-5.9,3.1c-2.8,2.2-5.2,5-7.1,8.4c-1.9,3.5-4.5,8.8-7.7,15.8
			c-2.7,5.8-5.3,10.7-7.7,14.4c-2.5,3.8-6,7.2-10.4,10c-4.5,2.9-10,4.3-16.6,4.3l-0.1,0c-5.3,0-9.9-0.9-14.5-2.8
			c-0.6-0.3-0.2-0.1-1.5-0.6c-0.1,0,0.6,0.5,1.4,1c0.9,0.6,2,1.2,2.5,1.5c5.5,3.4,11.9,5.1,19.1,5.1l0.1,0c6.6,0,12.2-1.5,16.6-4.3
			c4.4-2.9,8-6.2,10.4-10c2.4-3.7,5-8.6,7.7-14.4c3.2-7,5.7-12.4,7.7-15.8c1.9-3.4,4.2-6.2,7.1-8.4c0.7-0.5,1.4-1,2.1-1.4v0
			c0.2-0.1,0.4-0.2,0.5-0.3c4.1-2,9-0.9,11.9,0.1c0.2,0.1,0.3,0.1,0.5,0.2c1.4,0.5,2.2,0.9,2.2,0.9
			C145.8,46.3,145.2,45.6,144.6,44.9z"/>
		<g>
			<path class="st1" d="M105.5,26.8c-1.5-1.4-3.1-3.3-4.6-4.3l-0.8,0.8c-0.6,0.6-1.2,1.1-1.3,1.2c-3,3.7-7.4,9.3-9.8,14.7l-0.5,1
				L88.1,40l-0.6-0.4l-0.1-0.1c-2.7-1.7-6.5-4.1-9.4-4.6c-0.6-0.1-1.2-0.1-1.7-0.1c-2.8,0-5.5,1.1-8.5,3.4c-2.8,2.2-5.2,5-7.1,8.4
				c-1.9,3.5-4.5,8.8-7.7,15.8c-2.7,5.8-5.3,10.7-7.7,14.4c-2.5,3.8-6,7.2-10.4,10c-4.4,2.8-10,4.3-16.5,4.3c0,0,0,0,0,0l-0.2,3.6
				c2.2,0.4,4.5,0.6,6.9,0.6l0.1,0c6.6,0,12.2-1.5,16.6-4.3c1.8-1.2,3.5-2.5,5-3.8c2.1-1.9,4-4,5.4-6.2c1.7-2.7,3.6-5.9,5.4-9.7
				c0.8-1.5,1.5-3.1,2.3-4.7c3.2-7,5.7-12.4,7.7-15.8c1.9-3.4,4.2-6.2,7.1-8.4c2.9-2.2,7.2-4.7,13-2.4c0,0,0.1,0,0.1,0.1
				c0,0,0.1,0,0.1,0.1c0.1,0,0.1,0.1,0.3,0.2l0,0c0.4,0.2,0.3,0.2,4.7,4.6c2.1-4.3,4.2-7.9,6.2-10.9
				C101.2,31.3,103.3,28.9,105.5,26.8L105.5,26.8z"/>
			<path class="st1" d="M3.2,88.3l-0.1-0.1c-0.2-0.1-0.4-0.2-0.6-0.2c-0.4-0.2-0.8-0.4-1.2-0.6c-0.5-0.3-0.9-0.5-1.3-0.8
				c0,0,0,0.1,0.1,0.2c0.6,0.7,3.7,4,12.5,6.7c1.8,0.6,3.6,1.1,5.5,1.4c0.1,0,0.1,0,0.2,0v-3.6l-0.1,0C12.7,91.2,7.7,90.2,3.2,88.3z
				"/>
		</g>
	</g>
	<path class="st1" d="M18.4,91.2c0,0-0.1,0-0.1,0v0l0,0C18.3,91.2,18.4,91.2,18.4,91.2z"/>
	<path class="st2" d="M159,39.9c-1.8-0.5-3.3-1.2-4.5-2.2l1.8-4.1c2.5,1.7,5.3,2.6,8.4,2.6c1.6,0,2.8-0.3,3.7-0.8
		c0.9-0.5,1.3-1.2,1.3-2.2c0-0.8-0.4-1.5-1.2-1.9c-0.8-0.5-2.2-0.9-4.2-1.4c-2.3-0.5-4.1-1-5.4-1.7c-1.3-0.7-2.3-1.5-3-2.4
		c-0.6-1-0.9-2.1-0.9-3.6c0-1.6,0.4-2.9,1.3-4.2c0.9-1.2,2.1-2.2,3.6-2.9c1.6-0.7,3.4-1,5.4-1c1.8,0,3.6,0.3,5.3,0.8
		c1.7,0.5,3,1.3,4,2.2l-1.8,4.1c-2.4-1.7-4.8-2.6-7.4-2.6c-1.5,0-2.7,0.3-3.5,0.9c-0.9,0.6-1.3,1.4-1.3,2.4c0,0.6,0.2,1.1,0.5,1.4
		c0.3,0.4,0.9,0.7,1.6,1c0.8,0.3,1.9,0.6,3.3,0.9c3.3,0.7,5.7,1.7,7.1,2.8c1.4,1.1,2.2,2.7,2.2,4.7c0,2.4-0.9,4.3-2.8,5.7
		c-1.9,1.4-4.5,2.1-7.8,2.1C162.7,40.7,160.8,40.4,159,39.9z"/>
	<path class="st2" d="M182.1,37.9c-1.9-1.9-2.8-4.6-2.8-8.2V14.6h5.6V30c0,2,0.5,3.6,1.4,4.7c0.9,1.1,2.3,1.6,4.1,1.6
		c1.8,0,3.1-0.5,4.1-1.6c0.9-1.1,1.4-2.6,1.4-4.7V14.6h5.6v15.1c0,3.6-0.9,6.3-2.8,8.1c-1.9,1.9-4.6,2.8-8.2,2.8
		C186.7,40.7,184,39.7,182.1,37.9z"/>
	<path class="st2" d="M228.7,40.3h-6.2l-4.5-8.2c-0.4-0.6-0.8-1.1-1.3-1.4c-0.5-0.3-1.2-0.4-1.9-0.4H212v10h-5.6V14.6h11.8
		c3,0,5.3,0.7,6.8,2c1.5,1.3,2.3,3.2,2.3,5.7c0,1.9-0.5,3.6-1.6,4.9s-2.6,2.2-4.6,2.6c1.3,0.3,2.5,1.3,3.4,2.9L228.7,40.3z
		 M220.9,25.2c0.7-0.6,1.1-1.5,1.1-2.7c0-1.2-0.4-2.1-1.1-2.7c-0.7-0.6-1.9-0.8-3.5-0.8h-5.4V26h5.4C219,26,220.2,25.7,220.9,25.2z"
		/>
	<path class="st2" d="M232,40.3V14.6h17.4v4.5h-11.8V25h11v4.5h-11v10.8H232z"/>
	<path class="st1" d="M259.3,34.6c-0.9-0.6-1.6-1.3-2.2-2.4c-0.5-1-0.8-2.2-0.8-3.6c0-1.4,0.2-2.6,0.8-3.7c0.5-1,1.2-1.8,2.2-2.4
		c0.9-0.6,2-0.8,3.3-0.8c1.3,0,2.4,0.3,3.3,0.8c0.9,0.6,1.7,1.3,2.2,2.4c0.5,1,0.8,2.2,0.8,3.6c0,1.4-0.2,2.6-0.8,3.6
		c-0.5,1-1.2,1.8-2.2,2.4c-0.9,0.6-2,0.8-3.3,0.8C261.4,35.5,260.3,35.2,259.3,34.6z M265.8,32.5c0.7-0.9,1.1-2.2,1.1-3.9
		s-0.4-3-1.1-3.9s-1.8-1.4-3.1-1.4c-1.3,0-2.4,0.5-3.1,1.4s-1.1,2.2-1.1,3.9s0.4,3,1.1,3.9c0.7,0.9,1.8,1.4,3.1,1.4
		C264,33.9,265,33.4,265.8,32.5z"/>
	<path class="st1" d="M283.8,35.3h-2.2l-2.3-4.3c-0.3-0.5-0.6-0.8-0.9-1s-0.8-0.3-1.4-0.3h-2.2v5.5h-1.9V21.9h5.7
		c1.5,0,2.6,0.3,3.4,1c0.8,0.7,1.2,1.6,1.2,2.9c0,1-0.3,1.9-0.9,2.5c-0.6,0.7-1.4,1.1-2.5,1.3c0.7,0.2,1.2,0.7,1.6,1.5L283.8,35.3z
		 M278.4,28.2c1,0,1.7-0.2,2.2-0.6c0.5-0.4,0.7-1,0.7-1.8s-0.2-1.4-0.7-1.8s-1.2-0.6-2.2-0.6h-3.6v4.7H278.4z"/>
	<path class="st2" d="M159,76.2c-1.8-0.5-3.3-1.2-4.5-2.2l1.8-4.1c2.5,1.7,5.3,2.6,8.4,2.6c1.6,0,2.8-0.3,3.7-0.8
		c0.9-0.5,1.3-1.2,1.3-2.2c0-0.8-0.4-1.5-1.2-1.9s-2.2-0.9-4.2-1.4c-2.3-0.5-4.1-1-5.4-1.7c-1.3-0.7-2.3-1.5-3-2.4
		c-0.6-1-0.9-2.1-0.9-3.6c0-1.6,0.4-2.9,1.3-4.2c0.9-1.2,2.1-2.2,3.6-2.9c1.6-0.7,3.4-1,5.4-1c1.8,0,3.6,0.3,5.3,0.8
		c1.7,0.5,3,1.3,4,2.2l-1.8,4.1c-2.4-1.7-4.8-2.6-7.4-2.6c-1.5,0-2.7,0.3-3.5,0.9c-0.9,0.6-1.3,1.4-1.3,2.4c0,0.6,0.2,1.1,0.5,1.4
		c0.3,0.4,0.9,0.7,1.6,1c0.8,0.3,1.9,0.6,3.3,0.9c3.3,0.7,5.7,1.7,7.1,2.8c1.4,1.1,2.2,2.7,2.2,4.7c0,2.4-0.9,4.3-2.8,5.7
		c-1.9,1.4-4.5,2.1-7.8,2.1C162.7,77,160.8,76.7,159,76.2z"/>
	<path class="st2" d="M183.8,75.4c-1.9-1.1-3.3-2.6-4.4-4.6c-1-2-1.5-4.3-1.5-7c0-2.7,0.5-5,1.5-7c1-2,2.5-3.5,4.4-4.6
		c1.9-1.1,4.1-1.6,6.7-1.6s4.8,0.5,6.7,1.6c1.9,1.1,3.3,2.6,4.4,4.6c1,2,1.5,4.3,1.5,7c0,2.7-0.5,5-1.5,7c-1,2-2.5,3.5-4.4,4.6
		c-1.9,1.1-4.1,1.6-6.7,1.6S185.7,76.4,183.8,75.4z M195.6,70.3c1.2-1.5,1.8-3.7,1.8-6.5s-0.6-5-1.8-6.5c-1.2-1.5-2.9-2.2-5.1-2.2
		s-3.8,0.7-5.1,2.2c-1.2,1.5-1.8,3.7-1.8,6.5s0.6,5,1.8,6.5c1.2,1.5,2.9,2.3,5,2.3S194.3,71.8,195.6,70.3z"/>
	<path class="st2" d="M209.3,74.2c-1.9-1.9-2.8-4.6-2.8-8.2V50.9h5.6v15.4c0,2,0.5,3.6,1.4,4.7c0.9,1.1,2.3,1.6,4.1,1.6
		c1.8,0,3.1-0.5,4.1-1.6c0.9-1.1,1.4-2.6,1.4-4.7V50.9h5.6V66c0,3.6-0.9,6.3-2.8,8.1c-1.9,1.9-4.6,2.8-8.2,2.8
		C214,77,211.2,76.1,209.3,74.2z"/>
	<path class="st2" d="M250.6,50.9h5.3v25.7h-4.2l-12.8-16.4v16.4h-5.3V50.9h4.2l12.8,16.3V50.9z"/>
	<path class="st2" d="M260.3,50.9h10c2.8,0,5.2,0.5,7.2,1.5c2,1,3.6,2.5,4.6,4.4c1.1,1.9,1.6,4.2,1.6,6.9c0,2.7-0.5,5-1.6,6.9
		c-1.1,1.9-2.6,3.4-4.6,4.4c-2,1-4.4,1.5-7.3,1.5h-10V50.9z M269.9,72.1c5.5,0,8.2-2.8,8.2-8.3c0-5.5-2.7-8.2-8.2-8.2H266v16.5
		H269.9z"/>
	<g>
		<path class="st1" d="M166.5,100.6h-2.3l-2.4-4.6c-0.3-0.5-0.6-0.8-1-1c-0.4-0.2-0.9-0.3-1.5-0.3h-2.4v5.9h-2.1V86.2h6.1
			c1.6,0,2.8,0.4,3.6,1.1c0.8,0.7,1.3,1.7,1.3,3.1c0,1.1-0.3,2-0.9,2.7s-1.5,1.2-2.6,1.3c0.7,0.2,1.3,0.7,1.8,1.6L166.5,100.6z
			 M160.7,93c1.1,0,1.8-0.2,2.4-0.6c0.5-0.4,0.8-1.1,0.8-1.9s-0.3-1.5-0.8-1.9c-0.5-0.4-1.3-0.6-2.4-0.6h-3.8V93H160.7z"/>
		<path class="st1" d="M179.6,100.6V86.2h9.3v1.7h-7.3v4.5h6.9v1.7h-6.9v4.8h7.3v1.7H179.6z"/>
		<path class="st1" d="M213.2,100.6l-1.5-3.5h-7.3l-1.5,3.5h-2.1l6.4-14.4h1.8l6.4,14.4H213.2z M205.1,95.4h5.9l-2.9-6.8L205.1,95.4
			z"/>
		<path class="st1" d="M227.9,100.6V86.2h2.1v12.6h7v1.8H227.9z"/>
		<path class="st1" d="M253.2,100.6V88h-4.9v-1.8h11.9V88h-4.9v12.6H253.2z"/>
		<path class="st1" d="M284.2,86.2l-5.7,7.7v6.7h-2.1v-6.7l-5.7-7.7h2.4l4.4,5.9l4.4-5.9H284.2z"/>
	</g>
</g>
</svg>
